<svg width="44" height="270" viewBox="0 0 44 270" fill="none" xmlns="http://www.w3.org/2000/svg">
<path d="M43 269.3H42.4L41.5 265.7H2.5L1.6 269.3H0.999997V258.5C0.999997 256.62 1.22 255 1.66 253.64C2.06 252.24 2.64 251.08 3.4 250.16C4.12 249.24 4.98 248.56 5.98 248.12C6.94 247.64 7.98 247.4 9.1 247.4C9.98 247.4 10.76 247.54 11.44 247.82C12.12 248.06 12.72 248.4 13.24 248.84C13.72 249.24 14.16 249.72 14.56 250.28C14.92 250.8 15.22 251.34 15.46 251.9C16.06 253.22 16.44 254.72 16.6 256.4C16.84 253.92 17.46 251.72 18.46 249.8C18.9 248.96 19.44 248.16 20.08 247.4C20.68 246.6 21.44 245.9 22.36 245.3C23.24 244.66 24.28 244.16 25.48 243.8C26.64 243.4 27.98 243.2 29.5 243.2C31.38 243.2 33.14 243.56 34.78 244.28C36.42 245 37.86 246.04 39.1 247.4C40.3 248.72 41.26 250.32 41.98 252.2C42.66 254.08 43 256.18 43 258.5V269.3ZM17.2 260.6H41.8V258.5C41.8 257.14 41.54 255.88 41.02 254.72C40.5 253.56 39.72 252.56 38.68 251.72C37.64 250.84 36.36 250.16 34.84 249.68C33.32 249.16 31.54 248.9 29.5 248.9C27.46 248.9 25.68 249.16 24.16 249.68C22.64 250.16 21.36 250.84 20.32 251.72C19.28 252.56 18.5 253.56 17.98 254.72C17.46 255.88 17.2 257.14 17.2 258.5V260.6ZM16 260.6V258.5C15.96 256.7 15.38 255.26 14.26 254.18C13.1 253.06 11.38 252.5 9.1 252.5C6.82 252.5 5.1 253.06 3.94 254.18C2.78 255.26 2.2 256.7 2.2 258.5V260.6H16ZM15.4 227.607C15.4 228.287 15.64 228.987 16.12 229.707C16.56 230.387 17.32 231.027 18.4 231.627C19.44 232.187 20.84 232.667 22.6 233.067C24.36 233.427 26.56 233.607 29.2 233.607C31.84 233.607 34.04 233.427 35.8 233.067C37.56 232.667 38.98 232.187 40.06 231.627C41.1 231.027 41.86 230.387 42.34 229.707C42.78 228.987 43 228.287 43 227.607C43 226.927 42.78 226.247 42.34 225.567C41.86 224.847 41.1 224.207 40.06 223.647C38.98 223.047 37.56 222.567 35.8 222.207C34.04 221.807 31.84 221.607 29.2 221.607C26.56 221.607 24.36 221.807 22.6 222.207C20.84 222.567 19.44 223.047 18.4 223.647C17.32 224.207 16.56 224.847 16.12 225.567C15.64 226.247 15.4 226.927 15.4 227.607ZM14.5 227.607C14.5 226.127 14.84 224.707 15.52 223.347C16.16 221.947 17.12 220.727 18.4 219.687C19.64 218.607 21.18 217.767 23.02 217.167C24.82 216.527 26.88 216.207 29.2 216.207C31.52 216.207 33.6 216.527 35.44 217.167C37.24 217.767 38.78 218.607 40.06 219.687C41.3 220.727 42.26 221.947 42.94 223.347C43.58 224.707 43.9 226.127 43.9 227.607C43.9 229.127 43.58 230.567 42.94 231.927C42.26 233.287 41.3 234.507 40.06 235.587C38.78 236.627 37.24 237.467 35.44 238.107C33.6 238.707 31.52 239.007 29.2 239.007C26.88 239.007 24.82 238.707 23.02 238.107C21.18 237.467 19.64 236.627 18.4 235.587C17.12 234.507 16.16 233.287 15.52 231.927C14.84 230.567 14.5 229.127 14.5 227.607ZM43.9 200.623C43.9 201.903 43.74 203.003 43.42 203.923C43.14 204.843 42.8 205.583 42.4 206.143C41.96 206.823 41.46 207.383 40.9 207.823C41.5 207.983 42.06 208.323 42.58 208.843C43.1 209.323 43.44 209.783 43.6 210.223V211.123C43.08 211.083 42.54 211.043 41.98 211.003C41.5 210.963 41 210.923 40.48 210.883C39.92 210.843 39.36 210.823 38.8 210.823C38.2 210.823 37.6 210.843 37 210.883C36.4 210.923 35.86 210.963 35.38 211.003C34.82 211.043 34.26 211.083 33.7 211.123V210.223C36.58 209.463 38.8 208.303 40.36 206.743C41.92 205.183 42.7 203.343 42.7 201.223C42.7 199.543 42.18 198.183 41.14 197.143C40.1 196.063 38.82 195.523 37.3 195.523C36.22 195.523 35.28 195.903 34.48 196.663C33.68 197.383 32.96 198.303 32.32 199.423C31.64 200.543 30.98 201.743 30.34 203.023C29.7 204.303 28.98 205.503 28.18 206.623C27.38 207.743 26.44 208.683 25.36 209.443C24.28 210.163 22.96 210.523 21.4 210.523C20.52 210.523 19.66 210.323 18.82 209.923C17.98 209.523 17.24 208.983 16.6 208.303C15.96 207.583 15.46 206.723 15.1 205.723C14.7 204.723 14.5 203.623 14.5 202.423C14.5 201.383 14.66 200.483 14.98 199.723C15.3 198.923 15.64 198.243 16 197.683C16.44 197.083 16.94 196.563 17.5 196.123C16.9 195.963 16.34 195.643 15.82 195.163C15.3 194.643 14.96 194.163 14.8 193.723V192.823C15.32 192.903 15.86 192.963 16.42 193.003C16.9 193.043 17.42 193.083 17.98 193.123C18.54 193.123 19.08 193.123 19.6 193.123C20.2 193.123 20.82 193.123 21.46 193.123C22.06 193.083 22.6 193.043 23.08 193.003C23.64 192.963 24.18 192.903 24.7 192.823V193.723C21.82 194.483 19.6 195.603 18.04 197.083C16.48 198.563 15.7 200.143 15.7 201.823C15.7 203.183 16.16 204.323 17.08 205.243C17.96 206.163 19 206.623 20.2 206.623C21.2 206.623 22.06 206.243 22.78 205.483C23.5 204.723 24.18 203.783 24.82 202.663C25.42 201.543 26.04 200.323 26.68 199.003C27.32 197.643 28.06 196.403 28.9 195.283C29.74 194.163 30.74 193.223 31.9 192.463C33.06 191.703 34.46 191.323 36.1 191.323C37.06 191.323 38.02 191.563 38.98 192.043C39.9 192.483 40.74 193.123 41.5 193.963C42.22 194.763 42.8 195.743 43.24 196.903C43.68 198.023 43.9 199.263 43.9 200.623ZM41.5 183.807H2.5L1.6 187.407H0.999997V179.007H19C18.2 178.607 17.46 178.067 16.78 177.387C16.22 176.827 15.7 176.107 15.22 175.227C14.74 174.347 14.5 173.307 14.5 172.107C14.5 170.907 14.72 169.807 15.16 168.807C15.6 167.767 16.22 166.867 17.02 166.107C17.78 165.347 18.72 164.767 19.84 164.367C20.92 163.927 22.14 163.707 23.5 163.707H41.5L42.4 160.107H43V171.807H42.4L41.5 168.507H23.5C20.66 168.507 18.66 168.967 17.5 169.887C16.3 170.767 15.7 171.807 15.7 173.007C15.7 174.007 15.98 174.867 16.54 175.587C17.1 176.307 17.72 176.927 18.4 177.447C19.2 178.047 20.1 178.567 21.1 179.007H41.5L42.4 175.707H43V187.407H42.4L41.5 183.807ZM43.9 131.307C43.9 132.587 43.74 133.687 43.42 134.607C43.14 135.527 42.8 136.267 42.4 136.827C41.96 137.507 41.46 138.067 40.9 138.507C41.5 138.667 42.06 139.007 42.58 139.527C43.1 140.007 43.44 140.467 43.6 140.907V141.807C43.08 141.767 42.54 141.727 41.98 141.687C41.5 141.647 41 141.607 40.48 141.567C39.92 141.527 39.36 141.507 38.8 141.507C38.2 141.507 37.6 141.527 37 141.567C36.4 141.607 35.86 141.647 35.38 141.687C34.82 141.727 34.26 141.767 33.7 141.807V140.907C36.58 140.147 38.8 138.987 40.36 137.427C41.92 135.867 42.7 134.027 42.7 131.907C42.7 130.227 42.18 128.867 41.14 127.827C40.1 126.747 38.82 126.207 37.3 126.207C36.22 126.207 35.28 126.587 34.48 127.347C33.68 128.067 32.96 128.987 32.32 130.107C31.64 131.227 30.98 132.427 30.34 133.707C29.7 134.987 28.98 136.187 28.18 137.307C27.38 138.427 26.44 139.367 25.36 140.127C24.28 140.847 22.96 141.207 21.4 141.207C20.52 141.207 19.66 141.007 18.82 140.607C17.98 140.207 17.24 139.667 16.6 138.987C15.96 138.267 15.46 137.407 15.1 136.407C14.7 135.407 14.5 134.307 14.5 133.107C14.5 132.067 14.66 131.167 14.98 130.407C15.3 129.607 15.64 128.927 16 128.367C16.44 127.767 16.94 127.247 17.5 126.807C16.9 126.647 16.34 126.327 15.82 125.847C15.3 125.327 14.96 124.847 14.8 124.407V123.507C15.32 123.587 15.86 123.647 16.42 123.687C16.9 123.727 17.42 123.767 17.98 123.807C18.54 123.807 19.08 123.807 19.6 123.807C20.2 123.807 20.82 123.807 21.46 123.807C22.06 123.767 22.6 123.727 23.08 123.687C23.64 123.647 24.18 123.587 24.7 123.507V124.407C21.82 125.167 19.6 126.287 18.04 127.767C16.48 129.247 15.7 130.827 15.7 132.507C15.7 133.867 16.16 135.007 17.08 135.927C17.96 136.847 19 137.307 20.2 137.307C21.2 137.307 22.06 136.927 22.78 136.167C23.5 135.407 24.18 134.467 24.82 133.347C25.42 132.227 26.04 131.007 26.68 129.687C27.32 128.327 28.06 127.087 28.9 125.967C29.74 124.847 30.74 123.907 31.9 123.147C33.06 122.387 34.46 122.007 36.1 122.007C37.06 122.007 38.02 122.247 38.98 122.727C39.9 123.167 40.74 123.807 41.5 124.647C42.22 125.447 42.8 126.427 43.24 127.587C43.68 128.707 43.9 129.947 43.9 131.307ZM28.3 101.891C28.3 105.371 29.08 107.951 30.64 109.631C32.16 111.271 34.28 112.091 37 112.091C38.8 112.091 40.2 111.651 41.2 110.771C42.2 109.891 42.7 108.931 42.7 107.891C42.7 106.931 42.42 106.091 41.86 105.371C41.3 104.611 40.68 103.971 40 103.451C39.24 102.851 38.34 102.331 37.3 101.891H28.3ZM15.4 106.391C15.4 107.591 15.82 108.591 16.66 109.391C17.46 110.191 18.54 110.591 19.9 110.591C20.22 110.591 20.5 110.591 20.74 110.591C20.98 110.551 21.2 110.511 21.4 110.471C21.6 110.431 21.8 110.371 22 110.291L23.2 115.091C23.08 115.171 22.92 115.231 22.72 115.271C22.52 115.311 22.3 115.351 22.06 115.391C21.82 115.391 21.5 115.391 21.1 115.391C20.26 115.391 19.46 115.191 18.7 114.791C17.9 114.391 17.2 113.811 16.6 113.051C15.96 112.251 15.46 111.311 15.1 110.231C14.7 109.111 14.5 107.831 14.5 106.391C14.5 103.511 15.32 101.251 16.96 99.6106C18.6 97.9306 20.78 97.0906 23.5 97.0906H41.5L42.4 93.4906H43L43 101.891H39.4C40.24 102.331 41 102.891 41.68 103.571C42.24 104.131 42.74 104.851 43.18 105.731C43.66 106.571 43.9 107.591 43.9 108.791C43.9 111.671 43.22 113.851 41.86 115.331C40.5 116.771 38.68 117.491 36.4 117.491C35.28 117.491 34.16 117.191 33.04 116.591C31.92 115.951 30.92 115.011 30.04 113.771C29.16 112.491 28.46 110.871 27.94 108.911C27.38 106.951 27.1 104.611 27.1 101.891H23.5C20.5 101.891 18.4 102.351 17.2 103.271C16 104.151 15.4 105.191 15.4 106.391ZM41.5 87.1859H2.5L1.6 90.7859H0.999997L0.999997 82.3859H19C18.2 81.9859 17.46 81.4459 16.78 80.7659C16.22 80.2059 15.7 79.4859 15.22 78.6059C14.74 77.7259 14.5 76.6859 14.5 75.4859C14.5 74.2859 14.72 73.1859 15.16 72.1859C15.6 71.1459 16.22 70.2459 17.02 69.4859C17.78 68.7259 18.72 68.1459 19.84 67.7459C20.92 67.3059 22.14 67.0859 23.5 67.0859H41.5L42.4 63.4859H43V75.1859H42.4L41.5 71.8859H23.5C20.66 71.8859 18.66 72.3459 17.5 73.2659C16.3 74.1459 15.7 75.1859 15.7 76.3859C15.7 77.3859 15.98 78.2459 16.54 78.9659C17.1 79.6859 17.72 80.3059 18.4 80.8259C19.2 81.4259 20.1 81.9459 21.1 82.3859H41.5L42.4 79.0859H43V90.7859H42.4L41.5 87.1859ZM41.5 56.3H16.9L16 59.9H15.4V51.5H41.5L42.4 47.9H43V59.9H42.4L41.5 56.3ZM8.5 51.2C9.26 51.2 9.96 51.52 10.6 52.16C11.2 52.76 11.5 53.44 11.5 54.2C11.5 54.96 11.2 55.66 10.6 56.3C9.96 56.9 9.26 57.2 8.5 57.2C7.74 57.2 7.06 56.9 6.46 56.3C5.82 55.66 5.5 54.96 5.5 54.2C5.5 53.44 5.82 52.76 6.46 52.16C7.06 51.52 7.74 51.2 8.5 51.2ZM6.1 24.8141C6.78 24.8141 7.4 24.9341 7.96 25.1741C8.48 25.3741 8.94 25.6141 9.34 25.8941C9.78 26.2141 10.2 26.5541 10.6 26.9141L8.8 31.4141C8.4 31.0541 7.98 30.7141 7.54 30.3941C7.14 30.1141 6.68 29.8741 6.16 29.6741C5.6 29.4341 4.98 29.3141 4.3 29.3141C3.26 29.3141 2.46 29.5941 1.9 30.1541C1.3 30.6741 0.999997 31.3941 0.999997 32.3141C0.999997 32.7541 1.12 33.1741 1.36 33.5741C1.56 33.9741 1.94 34.3341 2.5 34.6541C3.02 34.9341 3.74 35.1741 4.66 35.3741C5.58 35.5341 6.76 35.6141 8.2 35.6141H15.4V27.2141H16.6V35.6141H41.5L42.4 32.0141H43V44.0141H42.4L41.5 40.4141H16.6V44.0141H15.4V40.4141H8.2C5.8 40.4141 3.86 39.6741 2.38 38.1941C0.859998 36.6741 0.099998 34.7141 0.099998 32.3141C0.099998 31.1941 0.279998 30.1741 0.639998 29.2541C0.959999 28.3341 1.4 27.5541 1.96 26.9141C2.52 26.2341 3.16 25.7141 3.88 25.3541C4.6 24.9941 5.34 24.8141 6.1 24.8141ZM28.3 8.60937C28.3 12.0894 29.08 14.6694 30.64 16.3494C32.16 17.9894 34.28 18.8094 37 18.8094C38.8 18.8094 40.2 18.3694 41.2 17.4894C42.2 16.6094 42.7 15.6494 42.7 14.6094C42.7 13.6494 42.42 12.8094 41.86 12.0894C41.3 11.3294 40.68 10.6894 40 10.1694C39.24 9.56937 38.34 9.04937 37.3 8.60937H28.3ZM15.4 13.1094C15.4 14.3094 15.82 15.3094 16.66 16.1094C17.46 16.9094 18.54 17.3094 19.9 17.3094C20.22 17.3094 20.5 17.3094 20.74 17.3094C20.98 17.2694 21.2 17.2294 21.4 17.1894C21.6 17.1494 21.8 17.0894 22 17.0094L23.2 21.8094C23.08 21.8894 22.92 21.9494 22.72 21.9894C22.52 22.0294 22.3 22.0694 22.06 22.1094C21.82 22.1094 21.5 22.1094 21.1 22.1094C20.26 22.1094 19.46 21.9094 18.7 21.5094C17.9 21.1094 17.2 20.5294 16.6 19.7694C15.96 18.9694 15.46 18.0294 15.1 16.9494C14.7 15.8294 14.5 14.5494 14.5 13.1094C14.5 10.2294 15.32 7.96937 16.96 6.32937C18.6 4.64937 20.78 3.80937 23.5 3.80937H41.5L42.4 0.209373H43V8.60937H39.4C40.24 9.04937 41 9.60937 41.68 10.2894C42.24 10.8494 42.74 11.5694 43.18 12.4494C43.66 13.2894 43.9 14.3094 43.9 15.5094C43.9 18.3894 43.22 20.5694 41.86 22.0494C40.5 23.4894 38.68 24.2094 36.4 24.2094C35.28 24.2094 34.16 23.9094 33.04 23.3094C31.92 22.6694 30.92 21.7294 30.04 20.4894C29.16 19.2094 28.46 17.5894 27.94 15.6294C27.38 13.6694 27.1 11.3294 27.1 8.60937H23.5C20.5 8.60937 18.4 9.06937 17.2 9.98937C16 10.8694 15.4 11.9094 15.4 13.1094Z" fill="#DDDDDD"/>
</svg>
