<svg width="57" height="218" viewBox="0 0 57 218" fill="none" xmlns="http://www.w3.org/2000/svg">
<path d="M40.8 208.6V197.8C39.12 197.8 37.56 197.46 36.12 196.78C34.68 196.1 33.44 195.24 32.4 194.2V193.6C32.92 193.68 33.46 193.74 34.02 193.78C34.5 193.82 35.02 193.86 35.58 193.9C36.14 193.9 36.68 193.9 37.2 193.9C37.96 193.9 38.64 193.9 39.24 193.9C39.8 193.86 40.3 193.82 40.74 193.78C41.22 193.74 41.64 193.68 42 193.6V217.3H41.4L40.5 213.7H1.5L0.599997 217.3H-2.86102e-06L-2.86102e-06 205H0.599997L1.5 208.6H40.8ZM14.4 177.716C14.4 178.396 14.64 179.096 15.12 179.816C15.56 180.496 16.32 181.136 17.4 181.736C18.44 182.296 19.84 182.776 21.6 183.176C23.36 183.536 25.56 183.716 28.2 183.716C30.84 183.716 33.04 183.536 34.8 183.176C36.56 182.776 37.98 182.296 39.06 181.736C40.1 181.136 40.86 180.496 41.34 179.816C41.78 179.096 42 178.396 42 177.716C42 177.036 41.78 176.356 41.34 175.676C40.86 174.956 40.1 174.316 39.06 173.756C37.98 173.156 36.56 172.676 34.8 172.316C33.04 171.916 30.84 171.716 28.2 171.716C25.56 171.716 23.36 171.916 21.6 172.316C19.84 172.676 18.44 173.156 17.4 173.756C16.32 174.316 15.56 174.956 15.12 175.676C14.64 176.356 14.4 177.036 14.4 177.716ZM13.5 177.716C13.5 176.236 13.84 174.816 14.52 173.456C15.16 172.056 16.12 170.836 17.4 169.796C18.64 168.716 20.18 167.876 22.02 167.276C23.82 166.636 25.88 166.316 28.2 166.316C30.52 166.316 32.6 166.636 34.44 167.276C36.24 167.876 37.78 168.716 39.06 169.796C40.3 170.836 41.26 172.056 41.94 173.456C42.58 174.816 42.9 176.236 42.9 177.716C42.9 179.236 42.58 180.676 41.94 182.036C41.26 183.396 40.3 184.616 39.06 185.696C37.78 186.736 36.24 187.576 34.44 188.216C32.6 188.816 30.52 189.116 28.2 189.116C25.88 189.116 23.82 188.816 22.02 188.216C20.18 187.576 18.64 186.736 17.4 185.696C16.12 184.616 15.16 183.396 14.52 182.036C13.84 180.676 13.5 179.236 13.5 177.716ZM47.1 151.319C48.98 151.959 50.54 152.579 51.78 153.179C53.06 153.779 54.08 154.419 54.84 155.099C55.64 155.739 56.2 156.419 56.52 157.139C56.84 157.819 57 158.579 57 159.419C57 159.659 56.98 159.879 56.94 160.079C56.94 160.279 56.92 160.479 56.88 160.679C56.84 160.879 56.78 161.059 56.7 161.219L52.2 162.119C52.28 161.959 52.34 161.779 52.38 161.579C52.42 161.379 52.44 161.179 52.44 160.979C52.48 160.779 52.5 160.559 52.5 160.319C52.5 157.919 52.04 156.179 51.12 155.099C50.24 153.979 48.9 153.119 47.1 152.519L42 150.839L15.9 161.219L15 164.819H14.4V152.819H15L15.9 156.119L35.04 148.499L16.5 142.319L15 146.219H14.4V137.219H15L16.5 141.119L47.1 151.319ZM40.5 132.445H15.9L15 136.045H14.4L14.4 127.645H40.5L41.4 124.045H42V136.045H41.4L40.5 132.445ZM7.5 127.345C8.26 127.345 8.96 127.665 9.6 128.305C10.2 128.905 10.5 129.585 10.5 130.345C10.5 131.105 10.2 131.805 9.6 132.445C8.96 133.045 8.26 133.345 7.5 133.345C6.74 133.345 6.06 133.045 5.46 132.445C4.82 131.805 4.5 131.105 4.5 130.345C4.5 129.585 4.82 128.905 5.46 128.305C6.06 127.665 6.74 127.345 7.5 127.345ZM40.5 117.159H1.5L0.599997 120.759H-2.86102e-06L-2.86102e-06 112.359H18C17.2 111.959 16.46 111.419 15.78 110.739C15.22 110.179 14.7 109.459 14.22 108.579C13.74 107.699 13.5 106.659 13.5 105.459C13.5 104.259 13.72 103.159 14.16 102.159C14.6 101.119 15.22 100.219 16.02 99.4586C16.78 98.6986 17.72 98.1186 18.84 97.7186C19.92 97.2786 21.14 97.0586 22.5 97.0586H40.5L41.4 93.4586H42V105.159H41.4L40.5 101.859H22.5C19.66 101.859 17.66 102.319 16.5 103.239C15.3 104.119 14.7 105.159 14.7 106.359C14.7 107.359 14.98 108.219 15.54 108.939C16.1 109.659 16.72 110.279 17.4 110.799C18.2 111.399 19.1 111.919 20.1 112.359H40.5L41.4 109.059H42V120.759H41.4L40.5 117.159ZM27.3 73.9727C27.3 77.4527 28.08 80.0327 29.64 81.7127C31.16 83.3527 33.28 84.1727 36 84.1727C37.8 84.1727 39.2 83.7327 40.2 82.8527C41.2 81.9727 41.7 81.0127 41.7 79.9727C41.7 79.0127 41.42 78.1727 40.86 77.4527C40.3 76.6927 39.68 76.0527 39 75.5327C38.24 74.9327 37.34 74.4127 36.3 73.9727H27.3ZM14.4 78.4727C14.4 79.6727 14.82 80.6727 15.66 81.4727C16.46 82.2727 17.54 82.6727 18.9 82.6727C19.22 82.6727 19.5 82.6727 19.74 82.6727C19.98 82.6327 20.2 82.5927 20.4 82.5527C20.6 82.5127 20.8 82.4527 21 82.3727L22.2 87.1727C22.08 87.2527 21.92 87.3127 21.72 87.3527C21.52 87.3927 21.3 87.4327 21.06 87.4727C20.82 87.4727 20.5 87.4727 20.1 87.4727C19.26 87.4727 18.46 87.2727 17.7 86.8727C16.9 86.4727 16.2 85.8927 15.6 85.1327C14.96 84.3327 14.46 83.3927 14.1 82.3127C13.7 81.1927 13.5 79.9127 13.5 78.4727C13.5 75.5927 14.32 73.3327 15.96 71.6927C17.6 70.0127 19.78 69.1727 22.5 69.1727H40.5L41.4 65.5727H42V73.9727H38.4C39.24 74.4127 40 74.9727 40.68 75.6527C41.24 76.2127 41.74 76.9327 42.18 77.8127C42.66 78.6527 42.9 79.6727 42.9 80.8727C42.9 83.7527 42.22 85.9327 40.86 87.4127C39.5 88.8527 37.68 89.5727 35.4 89.5727C34.28 89.5727 33.16 89.2727 32.04 88.6727C30.92 88.0327 29.92 87.0927 29.04 85.8527C28.16 84.5727 27.46 82.9527 26.94 80.9927C26.38 79.0327 26.1 76.6927 26.1 73.9727H22.5C19.5 73.9727 17.4 74.4327 16.2 75.3527C15 76.2327 14.4 77.2727 14.4 78.4727ZM40.5 59.268H1.5L0.599997 62.868H-2.86102e-06L-2.86102e-06 54.468H40.5L41.4 50.868H42V62.868H41.4L40.5 59.268ZM27.3 31.375C27.3 34.855 28.08 37.435 29.64 39.115C31.16 40.755 33.28 41.575 36 41.575C37.8 41.575 39.2 41.135 40.2 40.255C41.2 39.375 41.7 38.415 41.7 37.375C41.7 36.415 41.42 35.575 40.86 34.855C40.3 34.095 39.68 33.455 39 32.935C38.24 32.335 37.34 31.815 36.3 31.375H27.3ZM14.4 35.875C14.4 37.075 14.82 38.075 15.66 38.875C16.46 39.675 17.54 40.075 18.9 40.075C19.22 40.075 19.5 40.075 19.74 40.075C19.98 40.035 20.2 39.995 20.4 39.955C20.6 39.915 20.8 39.855 21 39.775L22.2 44.575C22.08 44.655 21.92 44.715 21.72 44.755C21.52 44.795 21.3 44.835 21.06 44.875C20.82 44.875 20.5 44.875 20.1 44.875C19.26 44.875 18.46 44.675 17.7 44.275C16.9 43.875 16.2 43.295 15.6 42.535C14.96 41.735 14.46 40.795 14.1 39.715C13.7 38.595 13.5 37.315 13.5 35.875C13.5 32.995 14.32 30.735 15.96 29.095C17.6 27.415 19.78 26.575 22.5 26.575H40.5L41.4 22.975H42V31.375H38.4C39.24 31.815 40 32.375 40.68 33.055C41.24 33.615 41.74 34.335 42.18 35.215C42.66 36.055 42.9 37.075 42.9 38.275C42.9 41.155 42.22 43.335 40.86 44.815C39.5 46.255 37.68 46.975 35.4 46.975C34.28 46.975 33.16 46.675 32.04 46.075C30.92 45.435 29.92 44.495 29.04 43.255C28.16 41.975 27.46 40.355 26.94 38.395C26.38 36.435 26.1 34.095 26.1 31.375H22.5C19.5 31.375 17.4 31.835 16.2 32.755C15 33.635 14.4 34.675 14.4 35.875ZM40.5 10.9844L41.4 7.38437H42V19.3844H41.4L40.5 15.7844H15.9L15 19.3844H14.4L14.4 10.9844H21.6C20.12 10.4644 18.78 9.84437 17.58 9.12437C16.54 8.48437 15.6 7.70437 14.76 6.78437C13.92 5.86437 13.5 4.76437 13.5 3.48437C13.5 3.04437 13.54 2.62437 13.62 2.22437C13.66 1.82437 13.72 1.46437 13.8 1.14437C13.92 0.784374 14.02 0.464374 14.1 0.184374L18.6 1.98437C18.48 2.22437 18.34 2.48437 18.18 2.76437C18.06 3.00437 17.96 3.30437 17.88 3.66437C17.76 3.98437 17.7 4.32437 17.7 4.68437C17.7 5.72437 17.98 6.64437 18.54 7.44437C19.1 8.24437 19.72 8.90437 20.4 9.42437C21.2 10.0644 22.1 10.5844 23.1 10.9844H40.5Z" fill="#DDDDDD"/>
</svg>
