<svg width="43" height="232" viewBox="0 0 43 232" fill="none" xmlns="http://www.w3.org/2000/svg">
<path d="M22.44 218.34L1.5 228L0.599997 231.6H-2.86102e-06V218.7H0.599997L1.5 222.3L16.5 215.4L2.1 208.2L0.599997 212.1H-2.86102e-06V203.1H0.599997L2.1 207L17.76 214.8L40.5 204.3L41.4 200.7H42V213.6H41.4L40.5 210L23.64 217.8L39.9 225.9L41.4 222H42V231H41.4L39.9 227.1L22.44 218.34ZM40.5 195.593H15.9L15 199.193H14.4V190.793H40.5L41.4 187.193H42V199.193H41.4L40.5 195.593ZM7.5 190.493C8.26 190.493 8.96 190.813 9.6 191.453C10.2 192.053 10.5 192.733 10.5 193.493C10.5 194.253 10.2 194.953 9.6 195.593C8.96 196.193 8.26 196.493 7.5 196.493C6.74 196.493 6.06 196.193 5.46 195.593C4.82 194.953 4.5 194.253 4.5 193.493C4.5 192.733 4.82 192.053 5.46 191.453C6.06 190.813 6.74 190.493 7.5 190.493ZM40.8 166.507C39.12 166.507 37.64 166.167 36.36 165.487C35.04 164.807 33.92 163.947 33 162.907V162.307C33.52 162.387 34.04 162.447 34.56 162.487C35 162.527 35.5 162.567 36.06 162.607C36.58 162.607 37.06 162.607 37.5 162.607C38.18 162.607 38.8 162.607 39.36 162.607C39.88 162.567 40.34 162.527 40.74 162.487C41.18 162.447 41.6 162.387 42 162.307L42 183.607L15.6 168.607V178.207C17.28 178.207 18.78 178.547 20.1 179.227C21.38 179.907 22.48 180.767 23.4 181.807V182.407C22.88 182.367 22.36 182.327 21.84 182.287C21.4 182.247 20.92 182.207 20.4 182.167C19.84 182.127 19.34 182.107 18.9 182.107C18.22 182.107 17.62 182.127 17.1 182.167C16.54 182.207 16.06 182.247 15.66 182.287C15.22 182.327 14.8 182.367 14.4 182.407V162.307L40.8 177.307L40.8 166.507ZM40.5 154.226H15.9L15 157.826H14.4V149.426H18C17.2 149.026 16.46 148.486 15.78 147.806C15.22 147.246 14.7 146.526 14.22 145.646C13.74 144.766 13.5 143.726 13.5 142.526C13.5 141.006 13.78 139.766 14.34 138.806C14.9 137.806 15.52 137.006 16.2 136.406C17 135.686 17.9 135.126 18.9 134.726C17.9 134.206 17 133.586 16.2 132.866C15.52 132.226 14.9 131.446 14.34 130.526C13.78 129.606 13.5 128.506 13.5 127.226C13.5 126.026 13.72 124.926 14.16 123.926C14.6 122.886 15.22 121.986 16.02 121.226C16.78 120.466 17.72 119.886 18.84 119.486C19.92 119.046 21.14 118.826 22.5 118.826H40.5L41.4 115.226H42V126.926H41.4L40.5 123.626H22.5C19.66 123.626 17.66 124.086 16.5 125.006C15.3 125.886 14.7 126.926 14.7 128.126C14.7 129.126 14.98 129.986 15.54 130.706C16.1 131.426 16.72 132.046 17.4 132.566C18.2 133.166 19.1 133.686 20.1 134.126H40.5L41.4 130.826H42V142.226H41.4L40.5 138.926H22.5C19.66 138.926 17.66 139.386 16.5 140.306C15.3 141.186 14.7 142.226 14.7 143.426C14.7 144.426 14.98 145.286 15.54 146.006C16.1 146.726 16.72 147.346 17.4 147.866C18.2 148.466 19.1 148.986 20.1 149.426H40.5L41.4 146.126H42V157.826H41.4L40.5 154.226ZM27.3 95.7539C27.3 99.2339 28.08 101.814 29.64 103.494C31.16 105.134 33.28 105.954 36 105.954C37.8 105.954 39.2 105.514 40.2 104.634C41.2 103.754 41.7 102.794 41.7 101.754C41.7 100.794 41.42 99.9539 40.86 99.2339C40.3 98.4739 39.68 97.8339 39 97.3139C38.24 96.7139 37.34 96.1939 36.3 95.7539H27.3ZM14.4 100.254C14.4 101.454 14.82 102.454 15.66 103.254C16.46 104.054 17.54 104.454 18.9 104.454C19.22 104.454 19.5 104.454 19.74 104.454C19.98 104.414 20.2 104.374 20.4 104.334C20.6 104.294 20.8 104.234 21 104.154L22.2 108.954C22.08 109.034 21.92 109.094 21.72 109.134C21.52 109.174 21.3 109.214 21.06 109.254C20.82 109.254 20.5 109.254 20.1 109.254C19.26 109.254 18.46 109.054 17.7 108.654C16.9 108.254 16.2 107.674 15.6 106.914C14.96 106.114 14.46 105.174 14.1 104.094C13.7 102.974 13.5 101.694 13.5 100.254C13.5 97.3739 14.32 95.1139 15.96 93.4739C17.6 91.7939 19.78 90.9539 22.5 90.9539H40.5L41.4 87.3539H42V95.7539H38.4C39.24 96.1939 40 96.7539 40.68 97.4339C41.24 97.9939 41.74 98.7139 42.18 99.5939C42.66 100.434 42.9 101.454 42.9 102.654C42.9 105.534 42.22 107.714 40.86 109.194C39.5 110.634 37.68 111.354 35.4 111.354C34.28 111.354 33.16 111.054 32.04 110.454C30.92 109.814 29.92 108.874 29.04 107.634C28.16 106.354 27.46 104.734 26.94 102.774C26.38 100.814 26.1 98.4739 26.1 95.7539H22.5C19.5 95.7539 17.4 96.2139 16.2 97.1339C15 98.0139 14.4 99.0539 14.4 100.254ZM14.4 68.4633H15.6V75.3633H34.74C37.18 75.3633 38.96 74.9233 40.08 74.0433C41.16 73.1633 41.7 72.2033 41.7 71.1633C41.7 69.8033 41.2 68.6633 40.2 67.7433C39.16 66.7833 37.66 66.2233 35.7 66.0633V65.1633C37.98 65.3233 39.76 66.0233 41.04 67.2633C42.28 68.4633 42.9 69.9633 42.9 71.7633C42.9 74.3233 42.16 76.3633 40.68 77.8833C39.16 79.4033 37.2 80.1633 34.8 80.1633H15.6V85.2633H14.4V80.1633H7.5L4.2 75.3633H14.4V68.4633ZM40.5 59.1352H1.5L0.599997 62.7352H-2.86102e-06V54.3352H40.5L41.4 50.7352H42L42 62.7352H41.4L40.5 59.1352ZM27.3 31.2422C27.3 34.7222 28.08 37.3022 29.64 38.9822C31.16 40.6222 33.28 41.4422 36 41.4422C37.8 41.4422 39.2 41.0022 40.2 40.1222C41.2 39.2422 41.7 38.2822 41.7 37.2422C41.7 36.2822 41.42 35.4422 40.86 34.7222C40.3 33.9622 39.68 33.3222 39 32.8022C38.24 32.2022 37.34 31.6822 36.3 31.2422H27.3ZM14.4 35.7422C14.4 36.9422 14.82 37.9422 15.66 38.7422C16.46 39.5422 17.54 39.9422 18.9 39.9422C19.22 39.9422 19.5 39.9422 19.74 39.9422C19.98 39.9022 20.2 39.8622 20.4 39.8222C20.6 39.7822 20.8 39.7222 21 39.6422L22.2 44.4422C22.08 44.5222 21.92 44.5822 21.72 44.6222C21.52 44.6622 21.3 44.7022 21.06 44.7422C20.82 44.7422 20.5 44.7422 20.1 44.7422C19.26 44.7422 18.46 44.5422 17.7 44.1422C16.9 43.7422 16.2 43.1622 15.6 42.4022C14.96 41.6022 14.46 40.6622 14.1 39.5822C13.7 38.4622 13.5 37.1822 13.5 35.7422C13.5 32.8622 14.32 30.6022 15.96 28.9622C17.6 27.2822 19.78 26.4422 22.5 26.4422H40.5L41.4 22.8422H42V31.2422H38.4C39.24 31.6822 40 32.2422 40.68 32.9222C41.24 33.4822 41.74 34.2022 42.18 35.0822C42.66 35.9222 42.9 36.9422 42.9 38.1422C42.9 41.0222 42.22 43.2022 40.86 44.6822C39.5 46.1222 37.68 46.8422 35.4 46.8422C34.28 46.8422 33.16 46.5422 32.04 45.9422C30.92 45.3022 29.92 44.3622 29.04 43.1222C28.16 41.8422 27.46 40.2222 26.94 38.2622C26.38 36.3022 26.1 33.9622 26.1 31.2422H22.5C19.5 31.2422 17.4 31.7022 16.2 32.6222C15 33.5022 14.4 34.5422 14.4 35.7422ZM40.5 10.8516L41.4 7.25156H42V19.2516H41.4L40.5 15.6516H15.9L15 19.2516H14.4V10.8516H21.6C20.12 10.3316 18.78 9.71156 17.58 8.99156C16.54 8.35156 15.6 7.57156 14.76 6.65156C13.92 5.73156 13.5 4.63156 13.5 3.35156C13.5 2.91156 13.54 2.49156 13.62 2.09156C13.66 1.69156 13.72 1.33156 13.8 1.01156C13.92 0.651561 14.02 0.331561 14.1 0.0515614L18.6 1.85156C18.48 2.09156 18.34 2.35156 18.18 2.63156C18.06 2.87156 17.96 3.17156 17.88 3.53156C17.76 3.85156 17.7 4.19156 17.7 4.55156C17.7 5.59156 17.98 6.51156 18.54 7.31156C19.1 8.11156 19.72 8.77156 20.4 9.29156C21.2 9.93156 22.1 10.4516 23.1 10.8516H40.5Z" fill="#DDDDDD"/>
</svg>
